<mxfile host="app.diagrams.net" agent="Mozilla/5.0 (Macintosh; Intel Mac OS X 10_15_7) AppleWebKit/537.36 (KHTML, like Gecko) Chrome/134.0.0.0 Safari/537.36" version="26.1.3">
  <diagram name="Page-1" id="6-ZPLgcqKG-mtbHpm2S0">
    <mxGraphModel dx="1554" dy="753" grid="1" gridSize="10" guides="1" tooltips="1" connect="1" arrows="1" fold="1" page="1" pageScale="1" pageWidth="827" pageHeight="1169" math="0" shadow="0">
      <root>
        <mxCell id="0" />
        <mxCell id="1" parent="0" />
        <mxCell id="tbMBCJbpy1B2ZYQLKF2u-3" value="" style="edgeStyle=orthogonalEdgeStyle;rounded=0;orthogonalLoop=1;jettySize=auto;html=1;" edge="1" parent="1" source="tbMBCJbpy1B2ZYQLKF2u-1" target="tbMBCJbpy1B2ZYQLKF2u-2">
          <mxGeometry relative="1" as="geometry" />
        </mxCell>
        <mxCell id="tbMBCJbpy1B2ZYQLKF2u-6" value="" style="edgeStyle=orthogonalEdgeStyle;rounded=0;orthogonalLoop=1;jettySize=auto;html=1;" edge="1" parent="1" source="tbMBCJbpy1B2ZYQLKF2u-1" target="tbMBCJbpy1B2ZYQLKF2u-5">
          <mxGeometry relative="1" as="geometry" />
        </mxCell>
        <mxCell id="tbMBCJbpy1B2ZYQLKF2u-1" value="SCX" style="rounded=0;whiteSpace=wrap;html=1;" vertex="1" parent="1">
          <mxGeometry x="340" y="170" width="120" height="60" as="geometry" />
        </mxCell>
        <mxCell id="tbMBCJbpy1B2ZYQLKF2u-2" value="CUSTOM DATA EVENTS" style="rounded=0;whiteSpace=wrap;html=1;" vertex="1" parent="1">
          <mxGeometry x="220" y="310" width="120" height="60" as="geometry" />
        </mxCell>
        <mxCell id="tbMBCJbpy1B2ZYQLKF2u-5" value="HTML TAGGING EVENTS" style="rounded=0;whiteSpace=wrap;html=1;" vertex="1" parent="1">
          <mxGeometry x="460" y="310" width="120" height="60" as="geometry" />
        </mxCell>
      </root>
    </mxGraphModel>
  </diagram>
</mxfile>
